<svg width="34" height="50" viewBox="0 0 34 50" fill="none" xmlns="http://www.w3.org/2000/svg">
<path d="M18.778 27.017H15.2224C15.2224 20.4883 17.2026 13.9705 21.5834 9.19964C22.2699 8.26524 22.6754 7.11157 22.6754 5.86319C22.6754 2.74773 20.1499 0.222168 17.0344 0.222168C13.9189 0.222168 11.3934 2.74773 11.3934 5.86319C11.3934 7.40027 12.0082 8.79377 13.0052 9.81121C9.48148 12.3233 2.93184 19.0567 2.93184 27.4871C2.93184 35.9949 9.60218 39.4392 13.1014 40.1463L0.111328 42.4444V49.1111L33.9575 49.1111V42.4444L20.6594 40.1121C24.1982 39.3331 30.6669 35.8653 30.6669 27.4871C30.6669 22.0013 28.1113 17.1111 25.0002 13.5555C21.5834 16.2222 18.778 22.4444 18.778 27.017Z" fill="#1C2D4E"/>
</svg>
