<svg width="50" height="53" viewBox="0 0 50 53" fill="none" xmlns="http://www.w3.org/2000/svg">
<path fill-rule="evenodd" clip-rule="evenodd" d="M22.2222 0.555542H27.5555L27.6944 4.99999H32.8888V10.3333H27.8611L28.1053 16.3715C28.2028 16.2567 28.3031 16.1441 28.4066 16.0342C33.2627 10.873 40.4628 8.1264 45.7777 12.5555C51.1111 17 51.1111 27.2222 43.7677 33.1343C39.6079 36.4834 35.882 39.7119 36.0656 44.4339L43.5372 45.4444V52.1111H6.24043V45.4444L13.7121 44.4339C13.8957 39.7119 10.1697 36.4834 6.00997 33.1343C-1.33339 27.2222 -1.33339 17 3.99994 12.5555C9.31492 8.1264 16.515 10.873 21.3711 16.0342C21.4745 16.1441 21.5749 16.2567 21.6724 16.3715L21.9166 10.3333H16.8888V4.99999H22.0833L22.2222 0.555542ZM17.1982 20.9761C20.4575 26.3148 20.8888 32.5555 20.8888 35.2695C19.2552 35.2724 13.0967 32.5631 9.83607 28.1152C7.48866 24.9131 6.87657 20.1622 8.88883 18.3177C10.9011 16.4733 15.1611 17.6395 17.1982 20.9761ZM32.5795 20.9761C29.3202 26.3148 28.8888 32.5555 28.8888 35.2695C30.5225 35.2724 36.681 32.5631 39.9416 28.1152C42.289 24.9131 42.9011 20.1622 40.8888 18.3177C38.8766 16.4733 34.6165 17.6395 32.5795 20.9761Z" fill="#1C2D4E"/>
</svg>
