<svg width="47" height="53" viewBox="0 0 47 53" fill="none" xmlns="http://www.w3.org/2000/svg">
<path fill-rule="evenodd" clip-rule="evenodd" d="M28.8184 10.3497L20.7883 0.983887C19.6259 3.19064 18.499 7.08539 20.1192 9.897C19.3328 9.96701 18.5813 10.1 18 10.3333C14.2915 11.8216 10.2223 15.6666 8.22227 23.6666C7.64314 25.9831 6.60082 27.0924 5.362 28.4109C4.19343 29.6545 2.85001 31.0843 1.5556 33.8889C-1.11107 39.6666 6.08566 45.4444 11.3334 40.1967C14.2837 37.2464 16.8626 36.0284 19.0278 35.0058C22.144 33.534 24.4033 32.467 25.6795 27.2222C26.2866 29.6687 26.0438 35.4424 20.215 38.9653C14.3862 42.4882 13.1719 49.9092 13.2933 52.111H46.4445C46.4445 31.2073 43.6769 13.1465 28.8184 10.3497Z" fill="#1C2D4E"/>
</svg>
