<svg width="35" height="48" viewBox="0 0 35 48" fill="none" xmlns="http://www.w3.org/2000/svg">
<path d="M26.0846 9.69315C26.0846 12.2466 24.9976 14.5462 23.261 16.1544L27.7354 19.3128V25.1006H23.3551C23.5663 27.7834 25.2877 30.4683 27.5151 32.8102C29.8789 35.2956 32.7229 37.3001 34.6116 38.3794L34.8888 38.5378V47.1111H0.222168V38.5378L0.499425 38.3794C2.38813 37.3001 5.2321 35.2956 7.59593 32.8102C9.82333 30.4683 11.5447 27.7834 11.7559 25.1006H7.37561V19.3128L11.5428 16.3713C9.66519 14.7566 8.47614 12.3638 8.47614 9.69315C8.47614 4.83071 12.4179 0.888916 17.2804 0.888916C22.1428 0.888916 26.0846 4.83071 26.0846 9.69315Z" fill="#1C2D4E"/>
</svg>
