<svg width="56" height="52" viewBox="0 0 56 52" fill="none" xmlns="http://www.w3.org/2000/svg">
<path d="M21.5953 9.03842C23.2617 8.3973 24.4443 6.78121 24.4443 4.8889C24.4443 2.4343 22.4545 0.444458 19.9999 0.444458C17.5453 0.444458 15.5554 2.4343 15.5554 4.8889C15.5554 7.15722 17.2547 9.02864 19.4497 9.29963L17.4677 25.3333L7.91296 17.0347C8.78661 16.2231 9.33323 15.0643 9.33323 13.7778C9.33323 11.3232 7.34338 9.33336 4.88878 9.33336C2.43418 9.33336 0.444336 11.3232 0.444336 13.7778C0.444336 16.2324 2.43418 18.2222 4.88878 18.2222C5.32088 18.2222 5.73857 18.1606 6.13355 18.0456L11.111 35.1111L16.2582 43.5339L11.111 44.4445V51.1111L44.9572 51.1111V44.4445L39.7438 43.5301L44.8888 35.1111L49.8662 18.0456C50.2612 18.1606 50.6789 18.2222 51.111 18.2222C53.5656 18.2222 55.5555 16.2324 55.5555 13.7778C55.5555 11.3232 53.5656 9.33336 51.111 9.33336C48.6564 9.33336 46.6666 11.3232 46.6666 13.7778C46.6666 15.0643 47.2132 16.2231 48.0868 17.0347L38.5321 25.3333L36.5501 9.29963C38.7451 9.02864 40.4443 7.15722 40.4443 4.8889C40.4443 2.4343 38.4545 0.444458 35.9999 0.444458C33.5453 0.444458 31.5554 2.4343 31.5554 4.8889C31.5554 6.78121 32.7381 8.3973 34.4045 9.03842L27.9999 23.5556L21.5953 9.03842Z" fill="#1C2D4E"/>
</svg>
