<svg width="336" height="181" viewBox="0 0 336 181" fill="none" xmlns="http://www.w3.org/2000/svg">
<path d="M30.2472 99.9318C32.8217 97.7965 41.7725 98.0056 47.0096 98.0056C52.2466 98.0056 62.5769 98.2315 65.4196 101.745C68.2623 105.259 60.3693 109 48.1509 109C35.9326 109 22.603 106.277 30.2472 99.9318Z" fill="#EEF0F7"/>
<path d="M66.4731 111.054C67.0151 109.889 68.8995 110.003 70.002 110.003C71.1045 110.003 73.2794 110.126 73.8778 112.043C74.4763 113.959 72.8146 116 70.2423 116C67.67 116 64.8638 114.515 66.4731 111.054Z" fill="#EEF0F7"/>
<path d="M270.476 159.827C269.857 161.182 267.738 161.034 266.498 161.026C265.257 161.018 262.812 160.858 262.153 158.618C261.495 156.377 263.38 154.009 266.274 154.028C269.167 154.047 272.313 155.801 270.476 159.827Z" fill="#EEF0F7"/>
<path d="M187.646 107C187.646 107 211.605 107.51 220.246 108.963C228.887 110.415 239.884 120.988 230.262 132.121C220.639 143.254 206.39 141.953 166 141.953C172.917 119.875 187.646 107 187.646 107Z" fill="#EEF0F7"/>
<path d="M48.1228 118.74C48.1228 118.74 36.0813 116.753 19.4222 119.292C9.18707 120.852 -0.869153 126.352 0.059755 134.224C1.41758 145.758 28.7873 141.373 36.0886 147.731C43.39 154.088 27.4785 155.945 23.0153 162.601C18.5521 169.257 22.6109 178.289 43.4635 179.663C64.3161 181.036 129.104 181.736 144.072 179.847C159.04 177.959 168.234 160.328 144.401 150.847C107.188 143.222 48.1228 118.74 48.1228 118.74Z" fill="#EEF0F7"/>
<path d="M228.835 165.461C232.087 162.741 243.392 163.007 250.01 163.007C256.628 163.007 269.676 163.297 273.267 167.769C276.858 172.241 266.887 177 251.452 177C236.017 177 219.189 173.537 228.835 165.461Z" fill="#EEF0F7"/>
<path d="M185.636 36.4446C185.636 36.4446 185.554 36.4229 185.636 36.4446C185.554 36.4229 185.533 36.5041 185.533 36.5041C185.614 36.5258 185.636 36.4446 185.636 36.4446Z" fill="#BEC0D6"/>
<path d="M211.447 146.071C206.351 141.05 198.974 132.197 193.554 122.214C188.766 113.446 185.679 104.175 186.615 95.8091C179.856 91.4737 172.745 87.4791 166.213 82.9437C173.421 78.7821 179.44 72.561 186.648 68.3995C181.022 63.4101 171.393 53.8667 171.393 53.8667C171.393 53.8667 179.644 42.2379 185.446 36.8289C185.468 36.7477 185.468 36.7477 185.489 36.6665C177.975 29.9527 171.187 22.4761 164.951 14.8864C158.973 18.6812 154.428 24.6007 152.469 31.9098C150.184 40.437 151.956 49.0937 156.573 55.9016L140.73 61.7534L135.768 80.2697L149.737 84.0125C146.78 92.4469 138.973 99.4944 129.803 105.132C120.117 111.067 109.303 115.046 102.379 116.846L101.355 117.094L94 144.544L204.854 174.247L212.209 146.798L211.447 146.071Z" fill="url(#paint0_linear_2878_23952)"/>
<path d="M200.122 5.77001C198.834 4.72862 197.443 3.74668 196.031 2.84596C193.85 1.56521 191.663 0.631059 189.308 0C191.347 2.46124 192.73 5.09501 194.151 7.91296C195.288 8.21761 196.322 8.58171 197.415 9.04878C198.332 7.90171 199.227 6.83586 200.122 5.77001Z" fill="#E1E6FF"/>
<path d="M197.415 9.04793C196.322 8.58086 195.288 8.21676 194.151 7.91211C194.642 9.00129 195.215 10.1122 195.707 11.2014C196.33 10.4981 196.873 9.77301 197.415 9.04793Z" fill="#E2E4EE"/>
<path d="M191.599 14.7783C188.831 11.2594 186.333 8.00198 182.885 5.2384C177.163 4.93088 171.521 6.32389 166.673 9.11354C172.569 16.9701 179.021 24.7379 186.233 31.7757C187.499 26.0917 189.241 20.2937 191.599 14.7783Z" fill="#E1E6FF"/>
<path d="M210.169 7.51308C205.584 14.3652 202.4 22.2375 199.951 29.8628C208.187 31.9239 215.576 34.7312 223.324 37.774C225.633 26.0108 220.449 13.9379 210.169 7.51308Z" fill="#E1E6FF"/>
<path d="M192.884 39.6044C192.927 39.442 192.933 39.0954 193.02 38.7705C193.036 39.0359 192.949 39.3608 192.884 39.6044Z" fill="#BEC0D6"/>
<path d="M226.755 48.3329C226.777 48.2517 226.798 48.1704 226.82 48.0892C227.321 46.2214 227.637 44.3912 227.791 42.5175C219.832 40.3849 212.052 38.5613 203.626 37.5222C203.604 37.6034 203.582 37.6846 203.561 37.7658C211.268 41.4849 218.824 45.7725 226.755 48.3329Z" fill="#E1E6FF"/>
<path d="M193.042 38.6903C193.064 38.6091 193.064 38.6091 193.086 38.5279C192.983 38.5873 192.961 38.6686 192.858 38.728C192.939 38.7498 192.939 38.7498 193.02 38.7715L193.042 38.6903Z" fill="#BEC0D6"/>
<path d="M214.502 81.5658L203.99 66.8294C211.139 63.7239 216.948 57.832 219.811 49.9263C211.989 46.8256 204.886 41.9279 197.453 37.7165C197.37 37.9545 197.338 38.2997 197.254 38.5377C197.31 38.379 197.37 37.9545 197.453 37.7165C197.374 37.6887 197.374 37.6887 197.295 37.6608C191.073 42.6953 182.126 53.7232 182.126 53.7232C182.126 53.7232 191.006 63.9668 196.239 69.367C188.737 72.9721 182.266 78.7206 174.764 82.3258C180.906 87.4211 187.616 91.9137 194.136 96.6958C194.251 96.1126 194.395 95.4501 194.51 94.8669L208.156 99.6543L214.502 81.5658Z" fill="#E1E6FF"/>
<defs>
<linearGradient id="paint0_linear_2878_23952" x1="180.755" y1="41.6654" x2="116.319" y2="144.084" gradientUnits="userSpaceOnUse">
<stop stop-color="#E1E6FF"/>
<stop offset="1" stop-color="#C0C9F6"/>
</linearGradient>
</defs>
</svg>
