<?xml version="1.0" standalone="no"?>
<!DOCTYPE svg PUBLIC "-//W3C//DTD SVG 20010904//EN"
 "http://www.w3.org/TR/2001/REC-SVG-20010904/DTD/svg10.dtd">
<svg version="1.0" xmlns="http://www.w3.org/2000/svg"
 width="50.000000pt" height="50.000000pt" viewBox="0 0 50.000000 50.000000"
 preserveAspectRatio="xMidYMid meet">

<g transform="translate(0.000000,50.000000) scale(0.100000,-0.100000)"
fill="#000000" stroke="none">
<path d="M45 447 c-3 -7 -4 -100 -3 -207 l3 -195 124 0 c91 0 125 3 128 13 4
9 -23 12 -111 12 l-116 0 0 180 0 180 180 0 180 0 0 -70 c0 -56 3 -70 15 -70
13 0 15 14 13 83 l-3 82 -203 3 c-159 2 -204 0 -207 -11z"/>
<path d="M170 370 l0 -40 -40 0 -40 0 0 -40 0 -40 40 0 40 0 0 -40 0 -40 -40
0 -40 0 0 -40 0 -40 40 0 40 0 0 40 0 40 40 0 40 0 0 -40 0 -40 40 0 c32 0 40
4 40 18 -1 25 -35 62 -59 62 -18 0 -21 6 -21 40 0 33 3 40 20 40 13 0 20 7 20
20 0 13 7 20 20 20 13 0 20 7 20 20 0 17 7 20 40 20 l40 0 0 40 0 40 -40 0
-40 0 0 -40 0 -40 -40 0 -40 0 0 40 0 40 -40 0 -40 0 0 -40z m80 -80 l0 -40
-40 0 -40 0 0 40 0 40 40 0 40 0 0 -40z"/>
<path d="M310 256 c0 -41 10 -46 90 -46 72 0 78 2 84 23 9 34 8 37 -14 37 -11
0 -20 -7 -20 -15 0 -8 -7 -15 -15 -15 -8 0 -15 7 -15 15 0 8 -9 15 -20 15 -11
0 -20 -7 -20 -15 0 -8 -7 -15 -15 -15 -8 0 -15 7 -15 15 0 8 -9 15 -20 15 -11
0 -20 -6 -20 -14z"/>
<path d="M322 173 c3 -15 15 -18 78 -18 63 0 75 3 78 18 3 15 -6 17 -78 17
-72 0 -81 -2 -78 -17z"/>
<path d="M356 114 c-11 -30 -6 -34 44 -34 50 0 55 4 44 34 -8 22 -80 22 -88 0z"/>
<path d="M317 54 c-4 -4 -7 -18 -7 -31 0 -22 2 -23 91 -23 l90 0 -3 27 c-3 28
-4 28 -83 31 -45 1 -84 0 -88 -4z"/>
</g>
</svg>
