<svg width="19" height="21" viewBox="0 0 19 21" fill="none" xmlns="http://www.w3.org/2000/svg">
<path d="M12.0001 0H8.0001C7.4501 0 7.0001 0.45 7.0001 1C7.0001 1.55 7.4501 2 8.0001 2H12.0001C12.5501 2 13.0001 1.55 13.0001 1C13.0001 0.45 12.5501 0 12.0001 0ZM10.0001 13C10.5501 13 11.0001 12.55 11.0001 12V8C11.0001 7.45 10.5501 7 10.0001 7C9.4501 7 9.0001 7.45 9.0001 8V12C9.0001 12.55 9.4501 13 10.0001 13ZM17.0301 6.39L17.7801 5.64C18.1601 5.26 18.1701 4.63 17.7801 4.24L17.7701 4.23C17.3801 3.84 16.7601 3.85 16.3701 4.23L15.6201 4.98C14.0701 3.74 12.1201 3 10.0001 3C5.2001 3 1.1201 6.96 1.0001 11.76C0.8701 16.84 4.9401 21 10.0001 21C14.9801 21 19.0001 16.97 19.0001 12C19.0001 9.88 18.2601 7.93 17.0301 6.39ZM10.0001 19C6.1301 19 3.0001 15.87 3.0001 12C3.0001 8.13 6.1301 5 10.0001 5C13.8701 5 17.0001 8.13 17.0001 12C17.0001 15.87 13.8701 19 10.0001 19Z" fill="white"/>
</svg>
