<svg width="20" height="10" viewBox="0 0 20 10" fill="none" xmlns="http://www.w3.org/2000/svg">
<path d="M12 0.5H15C17.4839 0.5 19.5 2.51614 19.5 5C19.5 7.48386 17.4839 9.5 15 9.5H12C11.7261 9.5 11.5 9.27386 11.5 9C11.5 8.72614 11.7261 8.5 12 8.5H15C16.9261 8.5 18.5 6.92614 18.5 5C18.5 3.07386 16.9261 1.5 15 1.5H12C11.7261 1.5 11.5 1.27386 11.5 1C11.5 0.726142 11.7261 0.5 12 0.5ZM7 5.5C6.72614 5.5 6.5 5.27386 6.5 5C6.5 4.72614 6.72614 4.5 7 4.5H13C13.2739 4.5 13.5 4.72614 13.5 5C13.5 5.27386 13.2739 5.5 13 5.5H7ZM5 8.5H8C8.27386 8.5 8.5 8.72614 8.5 9C8.5 9.27386 8.27386 9.5 8 9.5H5C2.51614 9.5 0.5 7.48386 0.5 5C0.5 2.51614 2.51614 0.5 5 0.5H8C8.27386 0.5 8.5 0.726142 8.5 1C8.5 1.27386 8.27386 1.5 8 1.5H5C3.07386 1.5 1.5 3.07386 1.5 5C1.5 6.92614 3.07386 8.5 5 8.5Z" stroke="#3C64B1"/>
</svg>
