<svg width="185" height="48" viewBox="0 0 185 48" fill="none" xmlns="http://www.w3.org/2000/svg">
<path d="M16.3997 40.4419C15.8503 40.1881 15.3162 39.9069 14.7975 39.5981L11.1328 42.1425L5.62498 36.6328L8.22373 32.8903C7.44147 31.5063 6.84628 30.0246 6.45373 28.4841L1.90967 27.6647V19.8675L6.58592 19.0238C7.00178 17.5643 7.60026 16.1632 8.36717 14.8537L5.62498 10.8984L11.1375 5.38594L15.1687 8.18719C16.4491 7.47003 17.8123 6.91214 19.2281 6.52594L20.1037 1.67062H27.9L28.7756 6.52594C30.1914 6.91214 31.5546 7.47003 32.835 8.18719L36.8662 5.38594L42.3787 10.8984L39.6328 14.8537C40.3997 16.1632 40.9982 17.5643 41.414 19.0238L46.0903 19.8675V27.6637L41.5462 28.4831C41.1537 30.0237 40.5585 31.5054 39.7762 32.8894L42.375 36.6319L36.8625 42.1444L33.1978 39.6C32.679 39.9056 32.145 40.1869 31.5956 40.4437L28.1034 44.7188V44.7234H19.8975V44.7188L16.3997 40.4419Z" fill="#8B8992"/>
<path d="M13.7605 8.18719C14.023 8.04 14.2912 7.90594 14.5612 7.76719L11.1327 5.38594L10.5562 5.9625L13.7605 8.18719ZM13.3912 39.6009L10.5562 41.5697L11.1327 42.1462L14.1712 40.0369C13.908 39.8975 13.648 39.7522 13.3912 39.6009ZM31.4268 8.18719L32.0324 7.76719C30.9887 7.24929 29.8974 6.83361 28.7737 6.52594L27.898 1.67062H26.4918L27.3674 6.52594C28.7832 6.91214 30.1464 7.47003 31.4268 8.18719ZM46.0948 27.6637V19.8675L41.4187 19.0238C41.0028 17.5643 40.4043 16.1632 39.6374 14.8537L42.3833 10.8984L36.8708 5.38594L36.0374 5.9625L40.9733 10.8984L38.2274 14.8537C38.9943 16.1632 39.5928 17.5643 40.0087 19.0238L44.6849 19.8675V27.6637L40.1408 28.4831C39.7483 30.0237 39.1531 31.5054 38.3708 32.8894L40.9696 36.6319L36.0374 41.5687L36.8671 42.1453L42.3796 36.6328L39.7808 32.8903C40.5631 31.5063 41.1583 30.0246 41.5508 28.4841L46.0948 27.6637ZM31.7962 39.6009C31.2774 39.9066 30.7433 40.1878 30.194 40.4447L26.6971 44.7188V44.7234H28.1033V44.7188L31.6002 40.4409C31.8777 40.3122 32.1518 40.1769 32.4224 40.035L31.7962 39.6009Z" fill="#78777F"/>
<path d="M28.6875 19.4166H27.2812C27.4108 19.4164 27.5389 19.4418 27.6586 19.4913C27.7783 19.5408 27.887 19.6133 27.9786 19.7048C28.0702 19.7963 28.1428 19.905 28.1924 20.0246C28.242 20.1442 28.2675 20.2724 28.2675 20.4019V21.2456C28.2668 21.5067 28.1625 21.7568 27.9776 21.9412C27.7928 22.1255 27.5423 22.2291 27.2812 22.2291H28.6875C28.9491 22.2291 29.1999 22.1252 29.3849 21.9402C29.5698 21.7552 29.6737 21.5044 29.6737 21.2428V20.3991C29.673 20.1381 29.5688 19.888 29.3839 19.7038C29.199 19.5196 28.9485 19.4163 28.6875 19.4166Z" fill="#3C64B1"/>
<path d="M30.8128 19.2975C31.4529 20.2246 31.8971 21.2726 32.1181 22.3773C32.3392 23.482 32.3325 24.6202 32.0984 25.7222C31.8644 26.8242 31.4079 27.8669 30.7569 28.7864C30.1059 29.7058 29.2742 30.4828 28.3125 31.0697H19.6875C18.7255 30.4831 17.8934 29.7064 17.2421 28.787C16.5907 27.8677 16.1339 26.8251 15.8995 25.723C15.665 24.621 15.658 23.4827 15.8788 22.3779C16.0996 21.273 16.5435 20.2248 17.1834 19.2975H30.8128Z" fill="#F3F6FA"/>
<path d="M16.125 44.7234H31.875C32.2512 44.7234 32.612 44.8729 32.878 45.1389C33.144 45.4049 33.2935 45.7657 33.2935 46.1419V47.5359H14.7075V46.1419C14.7075 45.7659 14.8568 45.4052 15.1226 45.1392C15.3884 44.8733 15.749 44.7237 16.125 44.7234Z" fill="#3C64B1"/>
<path d="M16.125 44.7234H31.875C32.2512 44.7234 32.612 44.8729 32.878 45.1389C33.144 45.4049 33.2935 45.7657 33.2935 46.1419V47.5359H14.7075V46.1419C14.7075 45.7659 14.8568 45.4052 15.1226 45.1392C15.3884 44.8733 15.749 44.7237 16.125 44.7234Z" fill="black" fill-opacity="0.3"/>
<path d="M31.875 44.7235H30.4688C30.655 44.7233 30.8396 44.7599 31.0117 44.8312C31.1839 44.9024 31.3403 45.0069 31.472 45.1386C31.6037 45.2704 31.7081 45.4268 31.7794 45.5989C31.8506 45.7711 31.8872 45.9556 31.8871 46.1419V47.5359H33.2934V46.1419C33.2936 45.9556 33.2569 45.7711 33.1856 45.5989C33.1144 45.4268 33.01 45.2704 32.8783 45.1386C32.7465 45.0069 32.59 44.9024 32.4179 44.8312C32.2457 44.7599 32.0613 44.7233 31.875 44.7235Z" fill="#3C64B1"/>
<path d="M31.875 44.7235H30.4688C30.655 44.7233 30.8396 44.7599 31.0117 44.8312C31.1839 44.9024 31.3403 45.0069 31.472 45.1386C31.6037 45.2704 31.7081 45.4268 31.7794 45.5989C31.8506 45.7711 31.8872 45.9556 31.8871 46.1419V47.5359H33.2934V46.1419C33.2936 45.9556 33.2569 45.7711 33.1856 45.5989C33.1144 45.4268 33.01 45.2704 32.8783 45.1386C32.7465 45.0069 32.59 44.9024 32.4179 44.8312C32.2457 44.7599 32.0613 44.7233 31.875 44.7235Z" fill="black" fill-opacity="0.5"/>
<path d="M19.8976 44.7244H16.6323C16.5976 44.7247 16.5628 44.7232 16.5283 44.7197C16.3251 44.7025 16.1288 44.6383 15.9548 44.5321C15.7808 44.4258 15.6339 44.2805 15.5258 44.1077C15.4177 43.9348 15.3514 43.7392 15.3321 43.5362C15.3128 43.3333 15.341 43.1286 15.4145 42.9384L16.3998 40.4456L16.998 38.9316C17.095 38.6875 17.263 38.4781 17.4802 38.3305C17.6975 38.183 17.9541 38.104 18.2167 38.1038H29.7845C30.0472 38.104 30.3037 38.183 30.521 38.3305C30.7383 38.4781 30.9063 38.6875 31.0033 38.9316L31.6014 40.4456L32.5858 42.9375C32.6593 43.1277 32.6875 43.3323 32.6682 43.5353C32.6489 43.7382 32.5826 43.9339 32.4745 44.1067C32.3664 44.2796 32.2195 44.4249 32.0455 44.5311C31.8715 44.6374 31.6752 44.7016 31.472 44.7188C31.4374 44.7222 31.4027 44.7238 31.368 44.7234H19.8976V44.7244Z" fill="#3C64B1"/>
<path d="M32.5859 42.9375L31.6006 40.4447L31.0024 38.9306C30.9054 38.6865 30.7374 38.4772 30.5202 38.3296C30.3029 38.182 30.0463 38.103 29.7837 38.1028H28.3774C28.6401 38.103 28.8967 38.182 29.1139 38.3296C29.3312 38.4772 29.4992 38.6865 29.5962 38.9306L30.1943 40.4447L31.1796 42.9375C31.2532 43.1276 31.2814 43.3323 31.2621 43.5353C31.2428 43.7382 31.1764 43.9339 31.0683 44.1067C30.9603 44.2796 30.8134 44.4249 30.6394 44.5311C30.4654 44.6374 30.269 44.7016 30.0659 44.7188C30.0313 44.7222 29.9966 44.7238 29.9618 44.7234H31.3681C31.4028 44.7238 31.4376 44.7222 31.4721 44.7188C31.6753 44.7016 31.8716 44.6374 32.0456 44.5311C32.2196 44.4249 32.3665 44.2796 32.4746 44.1067C32.5827 43.9339 32.649 43.7382 32.6683 43.5353C32.6876 43.3323 32.6594 43.1276 32.5859 42.9375Z" fill="#3C64B1"/>
<path d="M32.5859 42.9375L31.6006 40.4447L31.0024 38.9306C30.9054 38.6865 30.7374 38.4772 30.5202 38.3296C30.3029 38.182 30.0463 38.103 29.7837 38.1028H28.3774C28.6401 38.103 28.8967 38.182 29.1139 38.3296C29.3312 38.4772 29.4992 38.6865 29.5962 38.9306L30.1943 40.4447L31.1796 42.9375C31.2532 43.1276 31.2814 43.3323 31.2621 43.5353C31.2428 43.7382 31.1764 43.9339 31.0683 44.1067C30.9603 44.2796 30.8134 44.4249 30.6394 44.5311C30.4654 44.6374 30.269 44.7016 30.0659 44.7188C30.0313 44.7222 29.9966 44.7238 29.9618 44.7234H31.3681C31.4028 44.7238 31.4376 44.7222 31.4721 44.7188C31.6753 44.7016 31.8716 44.6374 32.0456 44.5311C32.2196 44.4249 32.3665 44.2796 32.4746 44.1067C32.5827 43.9339 32.649 43.7382 32.6683 43.5353C32.6876 43.3323 32.6594 43.1276 32.5859 42.9375Z" fill="black" fill-opacity="0.3"/>
<path d="M28.8854 38.1047H19.1147L20.4235 22.1325H27.5766L28.8854 38.1047Z" fill="#9AAFD7"/>
<path d="M27.5767 22.1325H26.1704L27.4792 38.1047H28.8854L27.5767 22.1325Z" fill="#6E87B8"/>
<path d="M28.6856 19.4166H19.3134C18.7693 19.4166 18.3281 19.8577 18.3281 20.4019V21.2438C18.3281 21.7879 18.7693 22.2291 19.3134 22.2291H28.6856C29.2298 22.2291 29.6709 21.7879 29.6709 21.2438V20.4019C29.6709 19.8577 29.2298 19.4166 28.6856 19.4166Z" fill="#3C64B1"/>
<path d="M28.6856 19.4166H19.3134C18.7693 19.4166 18.3281 19.8577 18.3281 20.4019V21.2438C18.3281 21.7879 18.7693 22.2291 19.3134 22.2291H28.6856C29.2298 22.2291 29.6709 21.7879 29.6709 21.2438V20.4019C29.6709 19.8577 29.2298 19.4166 28.6856 19.4166Z" fill="black" fill-opacity="0.3"/>
<path d="M28.5805 10.6875V14.8463H25.8374V10.6875H22.1624V14.8463H19.4193V10.6875H16.8018V18.54C16.8016 18.6546 16.8241 18.7681 16.8679 18.8739C16.9116 18.9798 16.9758 19.0761 17.0568 19.1571C17.1378 19.2382 17.2339 19.3025 17.3398 19.3464C17.4456 19.3902 17.5591 19.4128 17.6736 19.4128H30.3299C30.4445 19.4128 30.5579 19.3902 30.6638 19.3464C30.7696 19.3025 30.8658 19.2382 30.9467 19.1571C31.0277 19.0761 31.0919 18.9798 31.1357 18.8739C31.1794 18.7681 31.2019 18.6546 31.2018 18.54V10.6875H28.5805Z" fill="#3C64B1"/>
<path d="M29.7918 10.6875V18.54C29.7919 18.6546 29.7695 18.7681 29.7257 18.8739C29.6819 18.9798 29.6177 19.0761 29.5368 19.1571C29.4558 19.2382 29.3596 19.3025 29.2538 19.3464C29.1479 19.3902 29.0345 19.4128 28.9199 19.4128H30.3262C30.4407 19.4128 30.5542 19.3902 30.66 19.3464C30.7659 19.3025 30.862 19.2382 30.943 19.1571C31.024 19.0761 31.0882 18.9798 31.1319 18.8739C31.1757 18.7681 31.1982 18.6546 31.198 18.54V10.6875H29.7918Z" fill="#3C64B1"/>
<path d="M29.7918 10.6875V18.54C29.7919 18.6546 29.7695 18.7681 29.7257 18.8739C29.6819 18.9798 29.6177 19.0761 29.5368 19.1571C29.4558 19.2382 29.3596 19.3025 29.2538 19.3464C29.1479 19.3902 29.0345 19.4128 28.9199 19.4128H30.3262C30.4407 19.4128 30.5542 19.3902 30.66 19.3464C30.7659 19.3025 30.862 19.2382 30.943 19.1571C31.024 19.0761 31.0882 18.9798 31.1319 18.8739C31.1757 18.7681 31.1982 18.6546 31.198 18.54V10.6875H29.7918Z" fill="black" fill-opacity="0.3"/>
<path d="M25.8374 10.6903H24.4312V14.8491H25.8374V10.6903Z" fill="#3C64B1"/>
<path d="M25.8374 10.6903H24.4312V14.8491H25.8374V10.6903Z" fill="black" fill-opacity="0.3"/>
<path d="M19.4194 10.6903H18.0132V14.8491H19.4194V10.6903Z" fill="#3C64B1"/>
<path d="M19.4194 10.6903H18.0132V14.8491H19.4194V10.6903Z" fill="black" fill-opacity="0.3"/>
<path d="M57.2959 17.256H62.0299C62.6899 17.256 63.3139 17.316 63.9019 17.436C64.4899 17.556 64.9999 17.766 65.4319 18.066C65.8759 18.354 66.2239 18.75 66.4759 19.254C66.7399 19.746 66.8719 20.37 66.8719 21.126C66.8719 21.87 66.7519 22.494 66.5119 22.998C66.2719 23.502 65.9419 23.904 65.5219 24.204C65.1019 24.504 64.6039 24.72 64.0279 24.852C63.4519 24.972 62.8279 25.032 62.1559 25.032H60.1039V30H57.2959V17.256ZM60.1039 22.656H61.9759C62.2279 22.656 62.4679 22.632 62.6959 22.584C62.9359 22.536 63.1459 22.458 63.3259 22.35C63.5179 22.23 63.6679 22.074 63.7759 21.882C63.8959 21.678 63.9559 21.426 63.9559 21.126C63.9559 20.802 63.8779 20.544 63.7219 20.352C63.5779 20.148 63.3859 19.992 63.1459 19.884C62.9179 19.776 62.6599 19.71 62.3719 19.686C62.0839 19.65 61.8079 19.632 61.5439 19.632H60.1039V22.656ZM68.4278 16.392H71.1278V30H68.4278V16.392ZM78.6576 28.902H78.6216C78.3216 29.37 77.9196 29.706 77.4156 29.91C76.9236 30.114 76.4016 30.216 75.8496 30.216C75.4416 30.216 75.0456 30.156 74.6616 30.036C74.2896 29.928 73.9596 29.76 73.6716 29.532C73.3836 29.304 73.1556 29.022 72.9876 28.686C72.8196 28.35 72.7356 27.96 72.7356 27.516C72.7356 27.012 72.8256 26.586 73.0056 26.238C73.1976 25.89 73.4496 25.602 73.7616 25.374C74.0856 25.146 74.4516 24.972 74.8596 24.852C75.2676 24.72 75.6876 24.624 76.1196 24.564C76.5636 24.504 77.0016 24.468 77.4336 24.456C77.8776 24.444 78.2856 24.438 78.6576 24.438C78.6576 23.958 78.4836 23.58 78.1356 23.304C77.7996 23.016 77.3976 22.872 76.9296 22.872C76.4856 22.872 76.0776 22.968 75.7056 23.16C75.3456 23.34 75.0216 23.592 74.7336 23.916L73.2936 22.44C73.7976 21.972 74.3856 21.624 75.0576 21.396C75.7296 21.156 76.4256 21.036 77.1456 21.036C77.9376 21.036 78.5856 21.138 79.0896 21.342C79.6056 21.534 80.0136 21.822 80.3136 22.206C80.6256 22.59 80.8416 23.064 80.9616 23.628C81.0816 24.18 81.1416 24.822 81.1416 25.554V30H78.6576V28.902ZM77.9916 26.166C77.7876 26.166 77.5296 26.178 77.2176 26.202C76.9176 26.214 76.6236 26.262 76.3356 26.346C76.0596 26.43 75.8196 26.556 75.6156 26.724C75.4236 26.892 75.3276 27.126 75.3276 27.426C75.3276 27.75 75.4656 27.99 75.7416 28.146C76.0176 28.302 76.3056 28.38 76.6056 28.38C76.8696 28.38 77.1216 28.344 77.3616 28.272C77.6136 28.2 77.8356 28.098 78.0276 27.966C78.2196 27.834 78.3696 27.666 78.4776 27.462C78.5976 27.258 78.6576 27.018 78.6576 26.742V26.166H77.9916ZM82.9355 21.252H85.5275V22.44H85.5635C85.6475 22.272 85.7675 22.104 85.9235 21.936C86.0795 21.768 86.2655 21.618 86.4815 21.486C86.6975 21.354 86.9435 21.246 87.2195 21.162C87.4955 21.078 87.7955 21.036 88.1195 21.036C88.8035 21.036 89.3555 21.144 89.7755 21.36C90.1955 21.564 90.5195 21.852 90.7475 22.224C90.9875 22.596 91.1495 23.034 91.2335 23.538C91.3175 24.042 91.3595 24.588 91.3595 25.176V30H88.6595V25.716C88.6595 25.464 88.6475 25.206 88.6235 24.942C88.6115 24.666 88.5575 24.414 88.4615 24.186C88.3775 23.958 88.2395 23.772 88.0475 23.628C87.8675 23.484 87.6035 23.412 87.2555 23.412C86.9075 23.412 86.6255 23.478 86.4095 23.61C86.1935 23.73 86.0255 23.898 85.9055 24.114C85.7975 24.318 85.7255 24.552 85.6895 24.816C85.6535 25.08 85.6355 25.356 85.6355 25.644V30H82.9355V21.252ZM93.3715 21.252H95.9635V22.44H95.9995C96.0835 22.272 96.2035 22.104 96.3595 21.936C96.5155 21.768 96.7015 21.618 96.9175 21.486C97.1335 21.354 97.3795 21.246 97.6555 21.162C97.9315 21.078 98.2315 21.036 98.5555 21.036C99.2395 21.036 99.7915 21.144 100.212 21.36C100.632 21.564 100.956 21.852 101.184 22.224C101.424 22.596 101.586 23.034 101.67 23.538C101.754 24.042 101.796 24.588 101.796 25.176V30H99.0955V25.716C99.0955 25.464 99.0835 25.206 99.0595 24.942C99.0475 24.666 98.9935 24.414 98.8975 24.186C98.8135 23.958 98.6755 23.772 98.4835 23.628C98.3035 23.484 98.0395 23.412 97.6915 23.412C97.3435 23.412 97.0615 23.478 96.8455 23.61C96.6295 23.73 96.4615 23.898 96.3415 24.114C96.2335 24.318 96.1615 24.552 96.1255 24.816C96.0895 25.08 96.0715 25.356 96.0715 25.644V30H93.3715V21.252ZM103.844 21.252H106.544V30H103.844V21.252ZM103.628 18.498C103.628 18.066 103.778 17.7 104.078 17.4C104.39 17.088 104.762 16.932 105.194 16.932C105.626 16.932 105.992 17.088 106.292 17.4C106.604 17.7 106.76 18.066 106.76 18.498C106.76 18.93 106.604 19.302 106.292 19.614C105.992 19.914 105.626 20.064 105.194 20.064C104.762 20.064 104.39 19.914 104.078 19.614C103.778 19.302 103.628 18.93 103.628 18.498ZM108.583 21.252H111.175V22.44H111.211C111.295 22.272 111.415 22.104 111.571 21.936C111.727 21.768 111.913 21.618 112.129 21.486C112.345 21.354 112.591 21.246 112.867 21.162C113.143 21.078 113.443 21.036 113.767 21.036C114.451 21.036 115.003 21.144 115.423 21.36C115.843 21.564 116.167 21.852 116.395 22.224C116.635 22.596 116.797 23.034 116.881 23.538C116.965 24.042 117.007 24.588 117.007 25.176V30H114.307V25.716C114.307 25.464 114.295 25.206 114.271 24.942C114.259 24.666 114.205 24.414 114.109 24.186C114.025 23.958 113.887 23.772 113.695 23.628C113.515 23.484 113.251 23.412 112.903 23.412C112.555 23.412 112.273 23.478 112.057 23.61C111.841 23.73 111.673 23.898 111.553 24.114C111.445 24.318 111.373 24.552 111.337 24.816C111.301 25.08 111.283 25.356 111.283 25.644V30H108.583V21.252ZM128.199 29.262C128.199 30.918 127.779 32.172 126.939 33.024C126.111 33.888 124.845 34.32 123.141 34.32C122.361 34.32 121.593 34.23 120.837 34.05C120.081 33.882 119.385 33.546 118.749 33.042L120.243 30.81C120.663 31.158 121.101 31.434 121.557 31.638C122.025 31.842 122.535 31.944 123.087 31.944C123.915 31.944 124.521 31.74 124.905 31.332C125.301 30.936 125.499 30.426 125.499 29.802V28.956H125.463C125.151 29.376 124.761 29.676 124.293 29.856C123.837 30.024 123.405 30.108 122.997 30.108C122.349 30.108 121.761 30 121.233 29.784C120.705 29.556 120.249 29.244 119.865 28.848C119.493 28.44 119.205 27.96 119.001 27.408C118.797 26.856 118.695 26.25 118.695 25.59C118.695 25.014 118.785 24.45 118.965 23.898C119.157 23.346 119.421 22.86 119.757 22.44C120.105 22.02 120.525 21.684 121.017 21.432C121.509 21.168 122.067 21.036 122.691 21.036C123.075 21.036 123.423 21.078 123.735 21.162C124.059 21.246 124.347 21.354 124.599 21.486C124.851 21.618 125.067 21.768 125.247 21.936C125.427 22.092 125.571 22.248 125.679 22.404H125.715V21.252H128.199V29.262ZM121.395 25.572C121.395 25.86 121.449 26.136 121.557 26.4C121.665 26.652 121.815 26.88 122.007 27.084C122.211 27.276 122.439 27.432 122.691 27.552C122.955 27.672 123.243 27.732 123.555 27.732C123.855 27.732 124.137 27.672 124.401 27.552C124.665 27.432 124.893 27.276 125.085 27.084C125.289 26.88 125.445 26.652 125.553 26.4C125.661 26.136 125.715 25.86 125.715 25.572C125.715 25.284 125.661 25.014 125.553 24.762C125.445 24.498 125.289 24.27 125.085 24.078C124.893 23.874 124.665 23.712 124.401 23.592C124.137 23.472 123.855 23.412 123.555 23.412C123.243 23.412 122.955 23.472 122.691 23.592C122.439 23.712 122.211 23.874 122.007 24.078C121.815 24.27 121.665 24.498 121.557 24.762C121.449 25.014 121.395 25.284 121.395 25.572ZM144.559 20.568C144.283 20.232 143.941 19.974 143.533 19.794C143.137 19.614 142.675 19.524 142.147 19.524C141.619 19.524 141.127 19.626 140.671 19.83C140.227 20.034 139.837 20.322 139.501 20.694C139.177 21.054 138.919 21.486 138.727 21.99C138.547 22.494 138.457 23.04 138.457 23.628C138.457 24.228 138.547 24.78 138.727 25.284C138.919 25.776 139.177 26.208 139.501 26.58C139.825 26.94 140.203 27.222 140.635 27.426C141.079 27.63 141.553 27.732 142.057 27.732C142.633 27.732 143.143 27.612 143.587 27.372C144.031 27.132 144.397 26.796 144.685 26.364L147.025 28.11C146.485 28.866 145.801 29.424 144.973 29.784C144.145 30.144 143.293 30.324 142.417 30.324C141.421 30.324 140.503 30.168 139.663 29.856C138.823 29.544 138.097 29.1 137.485 28.524C136.873 27.936 136.393 27.228 136.045 26.4C135.709 25.572 135.541 24.648 135.541 23.628C135.541 22.608 135.709 21.684 136.045 20.856C136.393 20.028 136.873 19.326 137.485 18.75C138.097 18.162 138.823 17.712 139.663 17.4C140.503 17.088 141.421 16.932 142.417 16.932C142.777 16.932 143.149 16.968 143.533 17.04C143.929 17.1 144.313 17.202 144.685 17.346C145.069 17.49 145.435 17.682 145.783 17.922C146.131 18.162 146.443 18.456 146.719 18.804L144.559 20.568ZM151.006 16.392V22.44H151.042C151.102 22.272 151.204 22.104 151.348 21.936C151.492 21.768 151.666 21.618 151.87 21.486C152.074 21.354 152.314 21.246 152.59 21.162C152.866 21.078 153.166 21.036 153.49 21.036C154.174 21.036 154.726 21.144 155.146 21.36C155.566 21.564 155.89 21.852 156.118 22.224C156.358 22.596 156.52 23.034 156.604 23.538C156.688 24.042 156.73 24.588 156.73 25.176V30H154.03V25.716C154.03 25.464 154.018 25.206 153.994 24.942C153.982 24.666 153.928 24.414 153.832 24.186C153.748 23.958 153.61 23.772 153.418 23.628C153.238 23.484 152.974 23.412 152.626 23.412C152.278 23.412 151.996 23.478 151.78 23.61C151.564 23.73 151.396 23.898 151.276 24.114C151.168 24.318 151.096 24.552 151.06 24.816C151.024 25.08 151.006 25.356 151.006 25.644V30H148.306V16.392H151.006ZM167.021 28.488C166.589 29.04 166.043 29.466 165.383 29.766C164.723 30.066 164.039 30.216 163.331 30.216C162.659 30.216 162.023 30.108 161.423 29.892C160.835 29.676 160.319 29.37 159.875 28.974C159.443 28.566 159.101 28.08 158.849 27.516C158.597 26.952 158.471 26.322 158.471 25.626C158.471 24.93 158.597 24.3 158.849 23.736C159.101 23.172 159.443 22.692 159.875 22.296C160.319 21.888 160.835 21.576 161.423 21.36C162.023 21.144 162.659 21.036 163.331 21.036C163.955 21.036 164.519 21.144 165.023 21.36C165.539 21.576 165.971 21.888 166.319 22.296C166.679 22.692 166.955 23.172 167.147 23.736C167.339 24.3 167.435 24.93 167.435 25.626V26.472H161.171C161.279 26.988 161.513 27.402 161.873 27.714C162.233 28.014 162.677 28.164 163.205 28.164C163.649 28.164 164.021 28.068 164.321 27.876C164.633 27.672 164.903 27.414 165.131 27.102L167.021 28.488ZM164.735 24.636C164.747 24.18 164.597 23.79 164.285 23.466C163.973 23.142 163.571 22.98 163.079 22.98C162.779 22.98 162.515 23.028 162.287 23.124C162.059 23.22 161.861 23.346 161.693 23.502C161.537 23.646 161.411 23.82 161.315 24.024C161.231 24.216 161.183 24.42 161.171 24.636H164.735ZM174.127 23.826C173.731 23.334 173.209 23.088 172.561 23.088C172.333 23.088 172.111 23.142 171.895 23.25C171.679 23.358 171.571 23.544 171.571 23.808C171.571 24.024 171.679 24.186 171.895 24.294C172.123 24.39 172.405 24.48 172.741 24.564C173.089 24.636 173.455 24.72 173.839 24.816C174.235 24.9 174.601 25.038 174.937 25.23C175.285 25.422 175.567 25.686 175.783 26.022C176.011 26.346 176.125 26.784 176.125 27.336C176.125 27.9 175.999 28.368 175.747 28.74C175.507 29.1 175.195 29.394 174.811 29.622C174.427 29.838 173.995 29.988 173.515 30.072C173.035 30.168 172.561 30.216 172.093 30.216C171.481 30.216 170.863 30.132 170.239 29.964C169.615 29.784 169.087 29.472 168.655 29.028L170.293 27.21C170.545 27.522 170.821 27.762 171.121 27.93C171.433 28.086 171.793 28.164 172.201 28.164C172.513 28.164 172.795 28.122 173.047 28.038C173.299 27.942 173.425 27.774 173.425 27.534C173.425 27.306 173.311 27.138 173.083 27.03C172.867 26.91 172.585 26.814 172.237 26.742C171.901 26.658 171.535 26.574 171.139 26.49C170.755 26.394 170.389 26.256 170.041 26.076C169.705 25.896 169.423 25.644 169.195 25.32C168.979 24.984 168.871 24.54 168.871 23.988C168.871 23.472 168.973 23.028 169.177 22.656C169.393 22.284 169.669 21.978 170.005 21.738C170.353 21.498 170.749 21.324 171.193 21.216C171.637 21.096 172.087 21.036 172.543 21.036C173.119 21.036 173.701 21.12 174.289 21.288C174.877 21.456 175.375 21.756 175.783 22.188L174.127 23.826ZM182.559 23.826C182.163 23.334 181.641 23.088 180.993 23.088C180.765 23.088 180.543 23.142 180.327 23.25C180.111 23.358 180.003 23.544 180.003 23.808C180.003 24.024 180.111 24.186 180.327 24.294C180.555 24.39 180.837 24.48 181.173 24.564C181.521 24.636 181.887 24.72 182.271 24.816C182.667 24.9 183.033 25.038 183.369 25.23C183.717 25.422 183.999 25.686 184.215 26.022C184.443 26.346 184.557 26.784 184.557 27.336C184.557 27.9 184.431 28.368 184.179 28.74C183.939 29.1 183.627 29.394 183.243 29.622C182.859 29.838 182.427 29.988 181.947 30.072C181.467 30.168 180.993 30.216 180.525 30.216C179.913 30.216 179.295 30.132 178.671 29.964C178.047 29.784 177.519 29.472 177.087 29.028L178.725 27.21C178.977 27.522 179.253 27.762 179.553 27.93C179.865 28.086 180.225 28.164 180.633 28.164C180.945 28.164 181.227 28.122 181.479 28.038C181.731 27.942 181.857 27.774 181.857 27.534C181.857 27.306 181.743 27.138 181.515 27.03C181.299 26.91 181.017 26.814 180.669 26.742C180.333 26.658 179.967 26.574 179.571 26.49C179.187 26.394 178.821 26.256 178.473 26.076C178.137 25.896 177.855 25.644 177.627 25.32C177.411 24.984 177.303 24.54 177.303 23.988C177.303 23.472 177.405 23.028 177.609 22.656C177.825 22.284 178.101 21.978 178.437 21.738C178.785 21.498 179.181 21.324 179.625 21.216C180.069 21.096 180.519 21.036 180.975 21.036C181.551 21.036 182.133 21.12 182.721 21.288C183.309 21.456 183.807 21.756 184.215 22.188L182.559 23.826Z" fill="#3C64B1"/>
</svg>
