<?xml version="1.0" standalone="no"?>
<!DOCTYPE svg PUBLIC "-//W3C//DTD SVG 20010904//EN"
 "http://www.w3.org/TR/2001/REC-SVG-20010904/DTD/svg10.dtd">
<svg version="1.0" xmlns="http://www.w3.org/2000/svg"
 width="1200.000000pt" height="1063.000000pt" viewBox="0 0 1200.000000 1063.000000"
 preserveAspectRatio="xMidYMid meet">

<g transform="translate(0.000000,1063.000000) scale(0.100000,-0.100000)"
fill="#000000" stroke="none">
<path d="M1355 9960 c-137 -18 -293 -77 -402 -151 -69 -47 -178 -154 -229
-225 -57 -79 -118 -209 -146 -309 l-23 -80 -3 -3580 c-2 -3137 0 -3591 13
-3666 68 -396 384 -703 780 -758 53 -8 1471 -11 4703 -11 4976 0 4707 -3 4861
50 174 58 333 174 440 319 56 75 129 222 158 316 17 57 18 218 21 3660 2 2653
0 3619 -8 3673 -57 364 -333 656 -710 750 -60 15 -456 17 -4730 18 -2566 1
-4692 -2 -4725 -6z m9368 -763 c21 -16 46 -46 57 -67 20 -39 20 -60 18 -3569
l-3 -3529 -31 -39 c-17 -21 -46 -47 -65 -58 -34 -20 -52 -20 -4654 -20 l-4620
0 -40 21 c-22 11 -53 40 -70 63 l-30 43 0 3526 c0 3463 0 3528 19 3566 12 23
38 50 65 67 l45 29 4636 -2 4637 -3 36 -28z"/>
<path d="M2917 8485 c-448 -85 -797 -432 -882 -878 -31 -165 -15 -395 39 -553
123 -362 419 -629 798 -721 56 -14 113 -18 248 -17 156 0 185 3 272 26 419
113 729 453 802 877 96 564 -255 1105 -814 1251 -112 29 -348 37 -463 15z"/>
<path d="M6223 6118 l-1463 -1463 -458 458 -457 457 -913 -913 -912 -912 0
-548 0 -547 4025 0 4025 0 0 1278 0 1277 -1188 1188 c-653 653 -1189 1187
-1192 1187 -3 0 -663 -658 -1467 -1462z"/>
</g>
</svg>
