<svg width="57" height="56" viewBox="0 0 57 56" fill="none" xmlns="http://www.w3.org/2000/svg">
<circle cx="28.5" cy="28" r="24.5" fill="#F3E7F6" stroke="#F9F4FB" stroke-width="7"/>
<path d="M28.5 19.8335C22.6667 19.8335 17.685 23.4618 15.6667 28.5835C17.685 33.7052 22.6667 37.3335 28.5 37.3335C34.3334 37.3335 39.315 33.7052 41.3334 28.5835C39.315 23.4618 34.3334 19.8335 28.5 19.8335ZM28.5 34.4168C25.28 34.4168 22.6667 31.8035 22.6667 28.5835C22.6667 25.3635 25.28 22.7502 28.5 22.7502C31.72 22.7502 34.3334 25.3635 34.3334 28.5835C34.3334 31.8035 31.72 34.4168 28.5 34.4168ZM28.5 25.0835C26.5634 25.0835 25 26.6468 25 28.5835C25 30.5202 26.5634 32.0835 28.5 32.0835C30.4367 32.0835 32 30.5202 32 28.5835C32 26.6468 30.4367 25.0835 28.5 25.0835Z" fill="#8913A6"/>
</svg>
