<svg width="57" height="56" viewBox="0 0 57 56" fill="none" xmlns="http://www.w3.org/2000/svg">
<circle cx="28.5" cy="28" r="24.5" fill="#F3E7F6" stroke="#F9F4FB" stroke-width="7"/>
<g clip-path="url(#clip0_3185_1950)">
<path d="M36.178 17.5H19.8447C18.5614 17.5 17.5114 18.55 17.5114 19.8333V36.1667C17.5114 37.45 18.5614 38.5 19.8447 38.5H36.178C37.4614 38.5 38.5114 37.45 38.5114 36.1667V19.8333C38.5114 18.55 37.4614 17.5 36.178 17.5ZM31.5114 26.25C31.5114 27.2183 30.7297 28 29.7614 28C30.7297 28 31.5114 28.7817 31.5114 29.75V31.5C31.5114 32.795 30.4614 33.8333 29.178 33.8333H24.5114V31.5H29.178V29.1667H26.8447V26.8333H29.178V24.5H24.5114V22.1667H29.178C30.4614 22.1667 31.5114 23.205 31.5114 24.5V26.25Z" fill="#8913A6"/>
</g>
<defs>
<clipPath id="clip0_3185_1950">
<rect width="28" height="28" fill="white" transform="translate(13.9997 14)"/>
</clipPath>
</defs>
</svg>
