<svg width="24" height="13" viewBox="0 0 24 13" fill="none" xmlns="http://www.w3.org/2000/svg">
<path d="M7 5H5V3C5 2.45 4.55 2 4 2C3.45 2 3 2.45 3 3V5H1C0.45 5 0 5.45 0 6C0 6.55 0.45 7 1 7H3V9C3 9.55 3.45 10 4 10C4.55 10 5 9.55 5 9V7H7C7.55 7 8 6.55 8 6C8 5.45 7.55 5 7 5ZM18 6C19.66 6 20.99 4.66 20.99 3C20.99 1.34 19.66 0 18 0C17.68 0 17.37 0.0499999 17.09 0.14C17.66 0.95 17.99 1.93 17.99 3C17.99 4.07 17.65 5.04 17.09 5.86C17.37 5.95 17.68 6 18 6ZM13 6C14.66 6 15.99 4.66 15.99 3C15.99 1.34 14.66 0 13 0C11.34 0 10 1.34 10 3C10 4.66 11.34 6 13 6ZM13 8C11 8 7 9 7 11V12C7 12.55 7.45 13 8 13H18C18.55 13 19 12.55 19 12V11C19 9 15 8 13 8ZM19.62 8.16C20.45 8.89 21 9.82 21 11V12.5C21 12.67 20.98 12.84 20.95 13H23.5C23.78 13 24 12.78 24 12.5V11C24 9.46 21.63 8.51 19.62 8.16Z" fill="white"/>
</svg>
