<svg width="17" height="21" viewBox="0 0 17 21" fill="none" xmlns="http://www.w3.org/2000/svg">
<rect width="17" height="21" fill="#E5E5E5"/>
<rect width="1440" height="1024" transform="translate(-958 -633)" fill="#F3F6FA"/>
<g clip-path="url(#clip0_1802_6174)">
<rect x="-127" y="-537" width="384" height="590" rx="4" fill="white"/>
<rect width="384" height="84" transform="translate(-127 -31)" fill="white"/>
<mask id="path-5-inside-1_1802_6174" fill="white">
<path d="M8.00003 4.00003V1.21003C8.00003 0.760031 7.46003 0.540031 7.15003 0.860031L3.35003 4.65003C3.15003 4.85003 3.15003 5.16003 3.35003 5.36003L7.14003 9.15003C7.46003 9.46003 8.00003 9.24003 8.00003 8.79003V6.00003C11.73 6.00003 14.68 9.42003 13.86 13.29C13.39 15.56 11.55 17.39 9.29003 17.86C5.72003 18.61 2.54003 16.16 2.06003 12.85C1.99003 12.37 1.57003 12 1.08003 12C0.480028 12 2.79984e-05 12.53 0.080028 13.13C0.700028 17.52 4.88003 20.77 9.61003 19.85C12.73 19.24 15.24 16.73 15.85 13.61C16.84 8.48003 12.94 4.00003 8.00003 4.00003Z"/>
</mask>
<path d="M8.00003 4.00003V1.21003C8.00003 0.760031 7.46003 0.540031 7.15003 0.860031L3.35003 4.65003C3.15003 4.85003 3.15003 5.16003 3.35003 5.36003L7.14003 9.15003C7.46003 9.46003 8.00003 9.24003 8.00003 8.79003V6.00003C11.73 6.00003 14.68 9.42003 13.86 13.29C13.39 15.56 11.55 17.39 9.29003 17.86C5.72003 18.61 2.54003 16.16 2.06003 12.85C1.99003 12.37 1.57003 12 1.08003 12C0.480028 12 2.79984e-05 12.53 0.080028 13.13C0.700028 17.52 4.88003 20.77 9.61003 19.85C12.73 19.24 15.24 16.73 15.85 13.61C16.84 8.48003 12.94 4.00003 8.00003 4.00003Z" stroke="#3C64B1" stroke-width="4" mask="url(#path-5-inside-1_1802_6174)"/>
<path d="M-12 -8H142V-10H-12V-8ZM145 -5V27H147V-5H145ZM142 30H-12V32H142V30ZM-15 27V-5H-17V27H-15ZM-12 30C-13.6569 30 -15 28.6569 -15 27H-17C-17 29.7614 -14.7614 32 -12 32V30ZM145 27C145 28.6569 143.657 30 142 30V32C144.761 32 147 29.7614 147 27H145ZM142 -8C143.657 -8 145 -6.65685 145 -5H147C147 -7.76142 144.761 -10 142 -10V-8ZM-12 -10C-14.7614 -10 -17 -7.76142 -17 -5H-15C-15 -6.65685 -13.6569 -8 -12 -8V-10Z" fill="#3C64B1" fill-opacity="0.52"/>
</g>
<rect x="-126.5" y="-536.5" width="383" height="589" rx="3.5" stroke="#212121" stroke-opacity="0.12"/>
<defs>
<clipPath id="clip0_1802_6174">
<rect x="-127" y="-537" width="384" height="590" rx="4" fill="white"/>
</clipPath>
</defs>
</svg>
